<?xml version="1.0" encoding="iso-8859-1"?>
<!-- Uploaded to: SVG Repo, www.svgrepo.com, Generator: SVG Repo Mixer Tools -->
<!DOCTYPE svg PUBLIC "-//W3C//DTD SVG 1.1//EN" "http://www.w3.org/Graphics/SVG/1.1/DTD/svg11.dtd">
<svg fill="#000000" version="1.1" id="Capa_1" xmlns="http://www.w3.org/2000/svg" xmlns:xlink="http://www.w3.org/1999/xlink" 
	 width="800px" height="800px" viewBox="0 0 365.453 365.453"
	 xml:space="preserve">
<g>
	<g>
		<path d="M354.863,100.36l-39.787-58.507c-6.242-9.182-19.83-16.374-30.932-16.374H74.314c-10.892,0-25.151,6.323-32.464,14.396
			L15.12,69.384c-1.621,1.787-1.485,4.553,0.306,6.174c1.791,1.623,4.553,1.483,6.174-0.306l26.73-29.507
			c5.657-6.246,17.556-11.523,25.984-11.523h209.83c8.225,0,19.078,5.748,23.703,12.548l39.787,58.505
			c4.922,7.239,9.076,20.743,9.076,29.49v183.349c0,7.232-5.883,13.115-13.115,13.115H21.857c-7.232,0-13.114-5.883-13.114-13.115
			V123.775c0-7.23,5.882-13.114,13.114-13.114h281.521c2.414,0,4.371-1.957,4.371-4.372c0-2.415-1.957-4.371-4.371-4.371H21.857
			C9.804,101.918,0,111.723,0,123.775v194.341c0,12.053,9.804,21.857,21.857,21.857h321.738c12.053,0,21.857-9.805,21.857-21.857
			V134.765C365.453,124.206,360.803,109.096,354.863,100.36z"/>
		<path d="M218.799,211.729c-0.277,0.373-0.545,0.717-0.799,1.033c-0.238-0.297-0.486-0.617-0.746-0.967
			c-0.285-0.396-7.135-9.764-17.107-9.332c-11.789,0.48-17.958,7.869-17.958,14.92v64.551c0,9.594-5.145,19.271-16.639,19.271
			c-10.226,0-18.64-8.348-20.009-19.854c-0.285-2.395-2.46-4.094-4.857-3.824c-2.397,0.285-4.109,2.461-3.824,4.857
			c1.901,15.971,13.968,27.562,28.691,27.562c14.708,0,25.382-11.783,25.382-28.014v-64.553c0-2.879,3.287-5.93,9.572-6.184
			c4.357-0.158,8.453,4.051,9.689,5.748c4.682,6.287,6.49,6.287,7.811,6.287s3.127,0,7.797-6.27
			c0.041-0.059,4.438-5.762,9.879-5.762s9.834,5.703,9.867,5.742c4,5.381,5.373,6.289,7.467,6.289c0.734,0,4.408-0.252,4.408-5.195
			c0-0.91-0.123-22.506-10.85-43.329c-12.627-24.517-34.678-37.477-63.769-37.477c-29.37,0-51.542,13.049-64.122,37.738
			c-10.523,20.649-10.644,42.267-10.644,43.175c0,4.943,3.948,5.086,4.397,5.086c2.229,0,3.322-0.938,7.304-6.289
			c0.042-0.055,4.427-5.742,9.864-5.742c5.443,0,9.835,5.705,9.867,5.742c4.677,6.289,6.569,6.289,7.821,6.289
			c1.322,0,3.135,0,7.818-6.289c0.044-0.055,4.429-5.742,9.865-5.742c2.415,0,4.372-1.957,4.372-4.371
			c0-2.415-1.957-4.371-4.372-4.371c-9.867,0-16.597,8.889-16.877,9.268c-0.282,0.377-0.553,0.727-0.808,1.045
			c-0.255-0.318-0.524-0.666-0.806-1.045c-0.282-0.379-7.012-9.268-16.881-9.268c-4.769,0-8.804,2.076-11.733,4.264
			c1.805-11.703,6.594-29.772,19.283-43.068c11.198-11.731,26.557-17.68,45.651-17.68c19.032,0,34.354,5.987,45.545,17.8
			c12.824,13.538,17.562,31.553,19.311,43.131c-2.949-2.254-7.076-4.447-11.979-4.447
			C225.812,202.461,219.08,211.351,218.799,211.729z"/>
	</g>
</g>
</svg>